<svg id="圖層_1" data-name="圖層 1" xmlns="http://www.w3.org/2000/svg" viewBox="0 0 975.71 187.99"><defs><style>.cls-1{fill:#231815;}</style></defs><title>台灣金融研訓院-LOGO(金字圓滿)20191018-ol</title><path class="cls-1" d="M31.11,156.46v1.8a.36.36,0,0,1-.36.37H20.68v28.64a.36.36,0,0,1-.36.37H18.25a.36.36,0,0,1-.36-.37V158.63H7.82a.37.37,0,0,1-.37-.37v-1.8a.37.37,0,0,1,.37-.37H30.75A.36.36,0,0,1,31.11,156.46ZM48.9,164.1l9.67,23a.4.4,0,0,1,0,.35.35.35,0,0,1-.3.16h-1.8a.37.37,0,0,1-.33-.23l-3.22-7.71H43.2L40,187.41a.37.37,0,0,1-.34.23H38a.37.37,0,0,1-.3-.16.37.37,0,0,1,0-.34l9.59-23a.37.37,0,0,1,.34-.23h1A.36.36,0,0,1,48.9,164.1Zm-.17,5.57c-.29-.7-.53-1.28-.71-1.74-.23.66-.44,1.22-.63,1.7l-3.32,8H52ZM69.34,164H67.72a.36.36,0,0,0-.37.36v22.88a.37.37,0,0,0,.37.37h1.62a.36.36,0,0,0,.36-.37V164.39A.35.35,0,0,0,69.34,164Zm41.76,0h-1.69a.36.36,0,0,0-.35.24l-5.85,17.45c-.23.64-.41,1.17-.56,1.62l-.48-1.65-5.75-17a.37.37,0,0,0-.35-.25h-1a.37.37,0,0,0-.34.23l-6.59,16.86c-.3.74-.53,1.36-.71,1.85-.2-.71-.41-1.37-.62-2L81,164.27a.35.35,0,0,0-.34-.24h-1.8a.36.36,0,0,0-.3.15.38.38,0,0,0,0,.33l8,23a.37.37,0,0,0,.34.24h.95a.36.36,0,0,0,.34-.23l6.67-16.92c.24-.62.45-1.13.61-1.54.09.29.19.58.29.87.15.47,2.26,6.54,6.1,17.58a.37.37,0,0,0,.35.24h.95a.36.36,0,0,0,.34-.25l8-23a.33.33,0,0,0,0-.32A.33.33,0,0,0,111.1,164Zm15.14.07,9.67,23a.43.43,0,0,1,0,.35.37.37,0,0,1-.31.16h-1.8a.37.37,0,0,1-.33-.23l-3.22-7.71h-9.67l-3.19,7.71a.37.37,0,0,1-.34.23h-1.65a.38.38,0,0,1-.31-.16.41.41,0,0,1,0-.34l9.59-23a.37.37,0,0,1,.34-.23h1A.35.35,0,0,1,126.24,164.1Zm-.17,5.57c-.29-.7-.53-1.28-.71-1.74-.23.66-.43,1.22-.63,1.7l-3.32,8h7.94ZM164.63,164H163a.35.35,0,0,0-.36.36V181c0,.89,0,1.62,0,2.19l0,0c-.47-.6-1-1.22-1.51-1.83l-15-17.28a.37.37,0,0,0-.27-.13h-.78a.36.36,0,0,0-.36.37v23a.36.36,0,0,0,.36.37h1.62a.37.37,0,0,0,.37-.37V170.81q0-1.38,0-2.25l1.26,1.53,15.31,17.56a.31.31,0,0,0,.27.13h.77a.37.37,0,0,0,.37-.36v-23A.36.36,0,0,0,164.63,164Zm39.53-7.93,13,31a.39.39,0,0,1,0,.35.37.37,0,0,1-.31.16h-2.32a.37.37,0,0,1-.34-.23L209.83,177h-13.3l-4.35,10.46a.37.37,0,0,1-.34.23h-2.19a.37.37,0,0,1-.31-.16.37.37,0,0,1,0-.34l13-31a.36.36,0,0,1,.34-.22h1.21A.36.36,0,0,1,204.16,156.1Zm.11,7.43c-.59-1.28-1-2.12-1.18-2.68-.35,1-.68,1.9-1,2.65l-4.53,11H208.8Zm40.54,21.16a17.35,17.35,0,0,1-6.59,1.09,10.08,10.08,0,0,1-9.87-10,10.28,10.28,0,0,1,2.57-7.06,8.2,8.2,0,0,1,6.31-2.86,25.7,25.7,0,0,1,7.48,1.11.38.38,0,0,0,.45-.23l.42-1.34a.37.37,0,0,0-.23-.46,25.6,25.6,0,0,0-7.91-1.25,10.86,10.86,0,0,0-8.32,3.5,12.33,12.33,0,0,0-3.22,8.66,11.48,11.48,0,0,0,3.69,8.67,12.09,12.09,0,0,0,8.54,3.49,15.52,15.52,0,0,0,7.53-1.53.36.36,0,0,0,.15-.47l-.53-1.13A.35.35,0,0,0,244.81,184.69Zm18.36-20.59,9.66,23a.39.39,0,0,1,0,.35.37.37,0,0,1-.3.16h-1.8a.37.37,0,0,1-.34-.23l-3.22-7.71h-9.67l-3.19,7.71a.37.37,0,0,1-.34.23h-1.65a.35.35,0,0,1-.3-.16.38.38,0,0,1,0-.34l9.59-23a.37.37,0,0,1,.34-.23h.95A.38.38,0,0,1,263.17,164.1Zm-.18,5.57c-.29-.7-.52-1.28-.71-1.74-.22.66-.43,1.22-.63,1.7l-3.32,8h7.95Zm34.71-2.5a11.9,11.9,0,0,1,3.66,9.14c0,3.83-1.14,6.75-3.39,8.7a12.84,12.84,0,0,1-8.65,2.91c-2.35,0-4.83-.12-7.37-.35a.37.37,0,0,1-.33-.37V164.39A.36.36,0,0,1,282,164c1.88-.15,4.12-.22,6.65-.22A13,13,0,0,1,297.7,167.17Zm-1.37,16.2c1.73-1.54,2.61-3.92,2.61-7.06a9.87,9.87,0,0,0-3-7.53,10.41,10.41,0,0,0-7.36-2.8c-1.89,0-3.43,0-4.57.12v19.4c1.35.14,3.13.21,5.28.21A10.23,10.23,0,0,0,296.33,183.37Zm27.59,2.06h-9.06v-9.57h7.82a.36.36,0,0,0,.36-.37v-1.37a.36.36,0,0,0-.36-.36h-7.82v-7.6h8.7a.37.37,0,0,0,.37-.36v-1.41a.36.36,0,0,0-.37-.36H312.88a.36.36,0,0,0-.37.36v22.88a.37.37,0,0,0,.37.37h11a.36.36,0,0,0,.36-.37v-1.48A.36.36,0,0,0,323.92,185.43Zm31.42-21.55h-.95a.38.38,0,0,0-.33.21L346.13,181c-.25.5-.45.94-.62,1.32-.12-.32-.29-.75-.52-1.33l-7.13-16.9a.36.36,0,0,0-.33-.22h-.95a.37.37,0,0,0-.36.31l-3.74,23a.34.34,0,0,0,.08.29.37.37,0,0,0,.28.13h1.59a.36.36,0,0,0,.35-.31l2.65-17.3q.06-.34.12-.84c.12.3.24.58.35.84l6.67,16.18a.35.35,0,0,0,.33.23h1a.38.38,0,0,0,.33-.21l7.52-16.16.45-1c0,.27.08.57.12.91l2.51,17.39a.37.37,0,0,0,.36.31h1.69a.34.34,0,0,0,.27-.13.39.39,0,0,0,.09-.29l-3.49-23A.37.37,0,0,0,355.34,163.88Zm27.12.15a.34.34,0,0,0-.31.17l-6.67,11.4c-.24.41-.43.75-.58,1-.13-.24-.31-.58-.56-1.08l-6.66-11.36a.37.37,0,0,0-.31-.17h-1.94a.36.36,0,0,0-.32.18.38.38,0,0,0,0,.36l8.59,14.62v8.08a.37.37,0,0,0,.37.37h1.58a.37.37,0,0,0,.37-.37v-8l8.59-14.69a.38.38,0,0,0,0-.36.36.36,0,0,0-.32-.18Zm46,3.17a12.6,12.6,0,0,1,0,17.26,12,12,0,0,1-17,0,12.63,12.63,0,0,1,0-17.26,12,12,0,0,1,17,0Zm-1.69,15.72a10.71,10.71,0,0,0,0-14.2,9.42,9.42,0,0,0-13.56,0,10.66,10.66,0,0,0,0,14.2,9.47,9.47,0,0,0,13.56,0ZM455.14,164H443.4a.36.36,0,0,0-.37.36v22.88a.37.37,0,0,0,.37.37H445a.36.36,0,0,0,.36-.37V175.86h8.88a.36.36,0,0,0,.36-.37v-1.37a.36.36,0,0,0-.36-.36h-8.88v-7.6h9.76a.37.37,0,0,0,.37-.36v-1.41A.36.36,0,0,0,455.14,164Zm42.18,9.77a8.06,8.06,0,0,1,2.16,5.46,7.89,7.89,0,0,1-2.7,6.44,11.11,11.11,0,0,1-7.26,2.19c-3,0-5.86-.11-8.54-.34a.35.35,0,0,1-.33-.36V156.54a.36.36,0,0,1,.34-.36c2.27-.17,4.59-.26,6.9-.26a11.1,11.1,0,0,1,6.28,1.78,6,6,0,0,1,2.72,5.31,8.66,8.66,0,0,1-1.41,4.76,10.16,10.16,0,0,1-2.73,2.9A11.41,11.41,0,0,1,497.32,173.8Zm-2.62,9.86a5.23,5.23,0,0,0,1.9-4.19,6.05,6.05,0,0,0-1.86-4.44,10.12,10.12,0,0,0-5.18-2.62,17.65,17.65,0,0,0-3.61-.34h-2.51v13.07c1.31.12,3.43.18,6.32.18A7.34,7.34,0,0,0,494.7,183.66ZM492.79,167a6.91,6.91,0,0,0,1.31-4.08,3.75,3.75,0,0,0-1.8-3.34,7.49,7.49,0,0,0-4.2-1.23c-1.47,0-3,0-4.66.15v11.06h1.75c1,0,2.48.09,4.49.25A9.32,9.32,0,0,0,492.79,167Zm26.85-2.92,9.67,23a.4.4,0,0,1,0,.35.35.35,0,0,1-.3.16h-1.8a.36.36,0,0,1-.33-.23l-3.22-7.71h-9.68l-3.18,7.71a.37.37,0,0,1-.34.23h-1.66a.37.37,0,0,1-.3-.16.37.37,0,0,1,0-.34l9.59-23a.37.37,0,0,1,.34-.23h.95A.36.36,0,0,1,519.64,164.1Zm-.17,5.57c-.29-.7-.53-1.28-.71-1.74-.23.66-.44,1.22-.63,1.7l-3.32,8h7.94ZM558,164h-1.62a.35.35,0,0,0-.36.36V181c0,.89,0,1.62,0,2.19l0,0c-.47-.6-1-1.22-1.52-1.83l-15-17.28a.37.37,0,0,0-.28-.13h-.77a.37.37,0,0,0-.37.37v23a.37.37,0,0,0,.37.37h1.62a.36.36,0,0,0,.36-.37V170.81c0-.92,0-1.67,0-2.25l1.26,1.53L557,187.65a.34.34,0,0,0,.28.13H558a.36.36,0,0,0,.36-.36v-23A.35.35,0,0,0,558,164Zm25.58,20a93.16,93.16,0,0,1-7.68-8.61l9.56-10.8a.35.35,0,0,0,.06-.39.34.34,0,0,0-.33-.21h-1.94a.36.36,0,0,0-.27.12l-9.7,10.94v-10.7A.35.35,0,0,0,573,164h-1.62a.36.36,0,0,0-.37.36v22.88a.37.37,0,0,0,.37.37H573a.36.36,0,0,0,.36-.37V175.9c1,1.26,2.51,3,4.53,5.32s3.45,3.9,4.1,4.52a7.6,7.6,0,0,0,2.29,1.53,8.72,8.72,0,0,0,3.35.61h0a.36.36,0,0,0,.36-.35l0-1.09a.37.37,0,0,0-.33-.37A7.62,7.62,0,0,1,583.61,184Zm14.13-20h-1.62a.35.35,0,0,0-.36.36v22.88a.36.36,0,0,0,.36.37h1.62a.37.37,0,0,0,.37-.37V164.39A.36.36,0,0,0,597.74,164Zm32.87,0H629a.35.35,0,0,0-.36.36V181c0,.89,0,1.62,0,2.19l0,0c-.47-.6-1-1.22-1.52-1.83l-15-17.28a.37.37,0,0,0-.27-.13H611a.36.36,0,0,0-.36.37v23a.36.36,0,0,0,.36.37h1.62a.37.37,0,0,0,.37-.37V170.81q0-1.38,0-2.25l1.26,1.53,15.3,17.56a.34.34,0,0,0,.28.13h.77a.37.37,0,0,0,.37-.36v-23A.36.36,0,0,0,630.61,164Zm31.64,11.39h-1.62a.37.37,0,0,0-.37.36V185a17.23,17.23,0,0,1-6,.83,9.37,9.37,0,0,1-6.82-2.9,9.73,9.73,0,0,1-2.89-7.1,10.27,10.27,0,0,1,2.57-7.08,8.17,8.17,0,0,1,6.31-2.86,25.64,25.64,0,0,1,7.47,1.11.38.38,0,0,0,.46-.23l.42-1.34a.38.38,0,0,0-.24-.46,25.49,25.49,0,0,0-7.9-1.25,10.89,10.89,0,0,0-8.33,3.5,12.33,12.33,0,0,0-3.21,8.63,11.73,11.73,0,0,0,3.56,8.66,12,12,0,0,0,8.75,3.53c3.41,0,6.1-.59,8-1.75a.34.34,0,0,0,.17-.3V175.78A.36.36,0,0,0,662.25,175.42Zm35.89-11.32,9.66,23a.36.36,0,0,1-.33.51h-1.8a.35.35,0,0,1-.33-.23l-3.23-7.71h-9.67l-3.19,7.71a.36.36,0,0,1-.33.23h-1.66a.37.37,0,0,1-.3-.16.35.35,0,0,1,0-.34l9.59-23a.36.36,0,0,1,.33-.23h1A.37.37,0,0,1,698.14,164.1Zm-.18,5.57c-.29-.7-.52-1.28-.7-1.74-.23.66-.44,1.22-.63,1.7l-3.32,8h7.94ZM736.53,164h-1.62a.36.36,0,0,0-.37.36V181c0,.89,0,1.62,0,2.19,0,0,0,0,0,0-.46-.6-1-1.22-1.51-1.83L718,164a.37.37,0,0,0-.28-.13H717a.36.36,0,0,0-.36.37v23a.36.36,0,0,0,.36.37h1.63a.36.36,0,0,0,.36-.37V170.81c0-.92,0-1.67,0-2.25l1.25,1.53,15.31,17.56a.34.34,0,0,0,.27.13h.78a.36.36,0,0,0,.36-.36v-23A.35.35,0,0,0,736.53,164Zm29,3.14a11.86,11.86,0,0,1,3.66,9.14c0,3.83-1.14,6.75-3.39,8.7a12.82,12.82,0,0,1-8.65,2.91c-2.35,0-4.83-.12-7.37-.35a.37.37,0,0,1-.33-.37V164.39a.36.36,0,0,1,.34-.36c1.88-.15,4.12-.22,6.65-.22A13,13,0,0,1,765.54,167.17Zm-1.37,16.2c1.73-1.54,2.61-3.92,2.61-7.06a9.87,9.87,0,0,0-3-7.53,10.39,10.39,0,0,0-7.36-2.8c-1.89,0-3.43,0-4.57.12v19.4c1.35.14,3.13.21,5.28.21A10.23,10.23,0,0,0,764.17,183.37Zm45.41-27.28H793.85a.36.36,0,0,0-.36.37v30.81a.36.36,0,0,0,.36.37h2.07a.36.36,0,0,0,.36-.37V171.73h12.14a.36.36,0,0,0,.36-.36V169.6a.36.36,0,0,0-.36-.36H796.28V158.63h13.3a.37.37,0,0,0,.37-.37v-1.8A.37.37,0,0,0,809.58,156.09ZM823.75,164h-1.62a.35.35,0,0,0-.36.36v22.88a.36.36,0,0,0,.36.37h1.62a.37.37,0,0,0,.37-.37V164.39A.36.36,0,0,0,823.75,164Zm32.87,0H855a.35.35,0,0,0-.36.36V181c0,.89,0,1.62,0,2.19l0,0c-.46-.6-1-1.22-1.51-1.83L838.1,164a.37.37,0,0,0-.27-.13h-.78a.36.36,0,0,0-.36.37v23a.36.36,0,0,0,.36.37h1.62a.37.37,0,0,0,.37-.37V170.81c0-.92,0-1.67,0-2.25l1.25,1.53,15.31,17.56a.31.31,0,0,0,.27.13h.77a.37.37,0,0,0,.37-.36v-23A.36.36,0,0,0,856.62,164Zm20.37.07,9.66,23a.36.36,0,0,1-.33.51h-1.8a.37.37,0,0,1-.34-.23L881,179.7h-9.67l-3.19,7.71a.36.36,0,0,1-.33.23h-1.66a.37.37,0,0,1-.3-.16.35.35,0,0,1,0-.34l9.59-23a.36.36,0,0,1,.33-.23h1A.37.37,0,0,1,877,164.1Zm-.18,5.57c-.29-.7-.52-1.28-.7-1.74-.23.66-.44,1.22-.63,1.7l-3.32,8h7.94ZM915.38,164h-1.62a.35.35,0,0,0-.36.36V181c0,.89,0,1.62,0,2.19l0,0c-.46-.6-1-1.22-1.51-1.83l-15-17.28a.37.37,0,0,0-.28-.13h-.77a.37.37,0,0,0-.37.37v23a.37.37,0,0,0,.37.37h1.62a.36.36,0,0,0,.36-.37V170.81c0-.92,0-1.67,0-2.25l1.26,1.53,15.3,17.56a.34.34,0,0,0,.27.13h.78a.36.36,0,0,0,.36-.36v-23A.35.35,0,0,0,915.38,164Zm30.44,20.66a17.44,17.44,0,0,1-6.6,1.09,10.06,10.06,0,0,1-9.86-10,10.23,10.23,0,0,1,2.57-7.06,8.16,8.16,0,0,1,6.3-2.86,25.7,25.7,0,0,1,7.48,1.11.37.37,0,0,0,.45-.23l.42-1.34a.37.37,0,0,0-.23-.46,25.6,25.6,0,0,0-7.91-1.25,10.86,10.86,0,0,0-8.32,3.5,12.38,12.38,0,0,0-3.22,8.66,11.45,11.45,0,0,0,3.7,8.67,12,12,0,0,0,8.53,3.49,15.49,15.49,0,0,0,7.53-1.53.36.36,0,0,0,.15-.47l-.53-1.13A.34.34,0,0,0,945.82,184.69Zm22.32.74h-9v-9.57h7.82a.36.36,0,0,0,.36-.37v-1.37a.36.36,0,0,0-.36-.36h-7.82v-7.6h8.7a.36.36,0,0,0,.36-.36v-1.41a.35.35,0,0,0-.36-.36H957.1a.35.35,0,0,0-.36.36v22.88a.36.36,0,0,0,.36.37h11a.36.36,0,0,0,.36-.37v-1.48A.36.36,0,0,0,968.14,185.43Z"/><path class="cls-1" d="M109,58.45l-9,6.22a.71.71,0,0,1-1.05-.25c-2.56-4.93-5.8-10.54-9.4-16.5a.73.73,0,0,0-.77-.35c-21.84,4.62-57,9.48-85.11,11.5a.74.74,0,0,1-.76-.55L0,47.6a.73.73,0,0,1,.72-.92c5.35.13,10.92.24,16.5.13a.79.79,0,0,0,.57-.28C28,34,38.07,15.8,44.6,1.41a.71.71,0,0,1,1-.34L55.92,6a.73.73,0,0,1,.31,1C48,19.79,36.89,34.57,26,45.39a.72.72,0,0,0,.53,1.24c21.24-.45,42.89-1.94,58.57-3.47A.72.72,0,0,0,85.61,42c-4.28-6.6-9.1-13.4-13.94-19.88a.73.73,0,0,1,.1-1L74.26,19a.74.74,0,0,1,1,0c12.14,10.69,27.52,28.34,34,38.49A.73.73,0,0,1,109,58.45ZM15.37,70.63H92.89a.74.74,0,0,1,.74.73v53.69a.74.74,0,0,1-.74.73H83.65a.73.73,0,0,1-.73-.73v-8.71a.74.74,0,0,0-.74-.73H26.08a.73.73,0,0,0-.73.73v8.58a.73.73,0,0,1-.73.73H15.37a.73.73,0,0,1-.73-.73V71.36A.73.73,0,0,1,15.37,70.63ZM26.08,110h56.1a.73.73,0,0,0,.74-.73V77a.74.74,0,0,0-.74-.73H26.08a.73.73,0,0,0-.73.73v32.27A.73.73,0,0,0,26.08,110Zm135-40.55,0,.07c-.21,1.29-.42,2.61-.64,3.92-2.83,16.91-6.6,35.86-10,46.8a.72.72,0,0,1-1,.43l-9.54-4a.72.72,0,0,1-.39-1c5-11.14,11.09-28.61,15.91-43.31l1.36-4.17v0h0a.69.69,0,0,1,.34-.41.75.75,0,0,1,.55-.08h0l.65.2,2.11.61h0a.73.73,0,0,1,.56.86Zm-.15-20.86a106.36,106.36,0,0,0-19.26-13.93L140.6,34a.78.78,0,0,0-1,.27h0v0L138,36.68a.73.73,0,0,0-.13.47.8.8,0,0,0,.19.43l1.64,1.79a199,199,0,0,1,14,16.76.73.73,0,0,0,1.11.07l6.13-6.59A.74.74,0,0,0,160.92,48.57Zm4.37-34.26A108.7,108.7,0,0,0,147.63,2.94c-1.12-.59-2.2-1.15-3.23-1.67l-.16-.08a.72.72,0,0,0-1,.27h0l0,0-1.51,2.3h0a.73.73,0,0,0-.14.55.7.7,0,0,0,.26.47h0l0,0L144,6.91c4.69,4.53,9.84,9.69,14.36,15a.72.72,0,0,0,1.09,0l5.89-6.56A.75.75,0,0,0,165.29,14.31Zm50,34.09h-10a.74.74,0,0,0-.74.74v9.24a.74.74,0,0,0,.74.73h10a.74.74,0,0,0,.74-.73V49.14A.74.74,0,0,0,215.33,48.4Zm7.83-24.56a.74.74,0,0,0-.73-.74H197.65a.74.74,0,0,0-.73.74v3.35a.73.73,0,0,0,.73.73h24.78a.73.73,0,0,0,.73-.73ZM223,44.59V63.07a.73.73,0,0,1-.73.73h-24a.73.73,0,0,1-.73-.73V44.59a.74.74,0,0,1,.73-.74h24A.74.74,0,0,1,223,44.59Zm0-10.45a.73.73,0,0,0-.73-.73H197.79a.73.73,0,0,0-.73.73V37.5a.73.73,0,0,0,.73.73H222.3a.73.73,0,0,0,.73-.73Zm29,61.25H184.59a.74.74,0,0,1-.69-1l2.27-6.16a.73.73,0,0,1,.69-.48h59.26a.73.73,0,0,0,.74-.73V70.42a.74.74,0,0,0-.74-.73H173.43a.74.74,0,0,0-.74.73v3.76a.74.74,0,0,0,.74.73h63.32a.74.74,0,0,1,.74.73v6.44a.74.74,0,0,1-.74.73H188.26a.8.8,0,0,1-.33-.08l-7.76-3.82a.72.72,0,0,0-1,.43,214.12,214.12,0,0,1-10.35,26.89.71.71,0,0,0,.52,1l8,1.69a.73.73,0,0,0,.83-.42c1-2.37,2-4.84,3.05-7.42a.74.74,0,0,1,.68-.47h59a.74.74,0,0,1,.73.87A97,97,0,0,1,239,112.13c-2.39,6.75-5.82,7.09-26,1.77a.75.75,0,0,0-.88.43l-1.12,2.8a.76.76,0,0,0,.35.94c20.13,10.65,32.78,10.52,37-2.87a156.08,156.08,0,0,0,4.42-19A.75.75,0,0,0,252,95.39Zm-25.3-82.46H214c-.13,0-.25-.16-.1-.36l.28-.41,2.39-3.54a.75.75,0,0,0-.24-1.06A74.84,74.84,0,0,0,206,2.32c-1.31-.53-2.6-1-3.84-1.44l-.56-.19a.82.82,0,0,0-.47,0,.65.65,0,0,0-.43.41l-.85,1.94-.1.21a.73.73,0,0,0,.29.95c1.14.83,2.25,1.66,3.36,2.5,2,1.52,4,3.1,6,4.91a.75.75,0,0,1-.49,1.3H193.37a.73.73,0,0,0-.73.73v3.49a.73.73,0,0,0,.73.73h33.34a.74.74,0,0,0,.74-.73V13.66A.74.74,0,0,0,226.71,12.93Zm-53.84,36.8-.18,0-1.94-.45h0a.76.76,0,0,0-.3,0l-.22.08a.76.76,0,0,0-.37.47l-.08.33c-.2.71-.5,1.64-.74,2.34s-.42,1.08-.63,1.62a48.78,48.78,0,0,1-5.89,10.79.71.71,0,0,0,.26,1.07l5.47,2.74a.74.74,0,0,0,1-.38A65.41,65.41,0,0,0,172.85,55c.22-1.29.36-2.59.49-3.89,0-.21.06-.42.08-.63A.76.76,0,0,0,172.87,49.73Zm8.83,3.94c-.52-1.48-1.1-3-1.74-4.38,0,0,0-.09-.05-.13a.72.72,0,0,0-.89-.46l-.09,0-1.77.44a.71.71,0,0,0-.43.25.7.7,0,0,0-.2.54l.07.88c.13,1,.21,1.91.32,2.87,0,.31.05.61.08.92.37,3.69.65,7.41.76,10.89a.72.72,0,0,0,.86.68l5.62-1a.72.72,0,0,0,.58-.89C184,61.07,183,57.35,181.7,53.67Zm5.88-7.1h0Zm8.22,13.58a76.33,76.33,0,0,0-5.49-9.77c-.9-1.34-1.81-2.62-2.73-3.8h0a.75.75,0,0,0-1-.3l-.39.19-1.32.67a.8.8,0,0,0-.46.4.77.77,0,0,0,0,.52l.08.28c.4,1.1.78,2.25,1.17,3.38.09.25.16.51.25.76.56,1.65,1.11,3.31,1.61,5s1,3.53,1.44,5.28a.72.72,0,0,0,1,.5l5.44-2.09A.74.74,0,0,0,195.8,60.15Zm62.4-15.73a64.59,64.59,0,0,0-6.8-10.58,47.73,47.73,0,0,0-3.1-3.63.75.75,0,0,0-1-.2l-1,.67-.59.41h0a.6.6,0,0,0-.22.76c.61,1.16,1.27,2.51,2,3.94l.11.22.39.82a.74.74,0,0,1-.51,1c-3,.62-6,1.22-9.2,1.69a.75.75,0,0,1-.68-1.22,159.45,159.45,0,0,0,15.89-22.71.74.74,0,0,0-.36-1l-6.19-2.72a.73.73,0,0,0-1,.39c-1.21,3-2.55,6.26-4.09,9.5a.75.75,0,0,1-.6.43c-1.94.2-3.87.4-5.81.54a.74.74,0,0,1-.69-1.11,122.66,122.66,0,0,0,8.67-18,.73.73,0,0,0-.5-.94L236.64.84a.7.7,0,0,0-.91.53,146.34,146.34,0,0,1-6,21.15.75.75,0,0,1-.66.48c-.58,0-1.16,0-1.72,0l-1.12,0a.71.71,0,0,0-.72.82l0,.15,1.31,4.94a.72.72,0,0,0,.79.55l.14,0a66.25,66.25,0,0,0,9.72-2.06.74.74,0,0,1,.87,1,105.5,105.5,0,0,1-7.14,11.7.71.71,0,0,1-.55.29c-1.58.11-3.17.21-4.83.24a.73.73,0,0,0-.7.93l1.8,6a.72.72,0,0,0,.86.51,118.47,118.47,0,0,0,21.28-7,.73.73,0,0,1,1,.39c.83,2.07,1.63,4,2.15,5.71a.72.72,0,0,0,1,.43l4.6-2.24A.72.72,0,0,0,258.2,44.42Zm-26,5.07ZM234.86,51a1.36,1.36,0,0,1,0,.2c-.1,1.45-.22,2.88-.39,4.25a49.57,49.57,0,0,1-2.83,12.07.75.75,0,0,1-1,.41l-5-2.28a.7.7,0,0,1-.32-1,43.7,43.7,0,0,0,2.55-4.86c.75-1.67,1.43-3.42,2-5.18.09-.29,1-3,1.23-4l.18-.54a.73.73,0,0,1,.92-.47h0l2.1.69h0A.74.74,0,0,1,234.86,51Zm5.45-2.36h0ZM243,53.38c-.58-1.62-1.05-2.82-1.76-4.38a.8.8,0,0,0-.93-.39l-1.61.47-.3.09a.76.76,0,0,0-.52.83,110.91,110.91,0,0,1,1.35,15.36.71.71,0,0,0,.88.67l5.38-1.14A.71.71,0,0,0,246,64,85.7,85.7,0,0,0,243,53.38Zm4-6.93-.18.1.18-.1ZM257,60.07a61.1,61.1,0,0,0-6.22-9.9c-.92-1.19-2-2.51-2.92-3.55a.76.76,0,0,0-.91-.17l-.18.1-1.61.88a.72.72,0,0,0-.26.94c.61,1.29,1.2,2.64,1.79,4,1.51,3.51,2.92,7.21,4.08,10.76a.71.71,0,0,0,1,.4l4.88-2.49A.73.73,0,0,0,257,60.07ZM195.77,42.64a49.69,49.69,0,0,0-5.15-7.82,34.57,34.57,0,0,0-3.1-3.51.73.73,0,0,0-.93-.12l-1.42.81-.24.13a.88.88,0,0,0-.24,1.07c.44.95,1.14,2.51,1.55,3.41a.69.69,0,0,1,0,.49.78.78,0,0,1-.22.37.52.52,0,0,1-.26.17c-2.65.67-5.37,1.27-8.11,1.8a.74.74,0,0,1-.69-1.22,132.33,132.33,0,0,0,15.3-21.4.74.74,0,0,0-.32-1L186.26,13a.71.71,0,0,0-1,.39,96.72,96.72,0,0,1-4.1,9.07.72.72,0,0,1-.57.41c-1.85.2-3.78.4-5.71.54a.73.73,0,0,1-.69-1.09,185,185,0,0,0,9-17.88.74.74,0,0,0-.46-1l-6.49-1.94a.7.7,0,0,0-.91.51A137.88,137.88,0,0,1,169,23.21a.74.74,0,0,1-.65.46c-.66,0-1.32,0-2,0l-1.08,0a.71.71,0,0,0-.73.81l1.17,5.72a.77.77,0,0,0,.8.59,73.84,73.84,0,0,0,10-2.32.74.74,0,0,1,.86,1.06,115.64,115.64,0,0,1-6.83,10.73.73.73,0,0,1-.51.3c-1.73.21-3.46.42-5.19.56a.72.72,0,0,0-.64.93l1.8,5.72a.74.74,0,0,0,.85.51,106.79,106.79,0,0,0,20.48-7,.73.73,0,0,1,1,.4l1.44,3.76a.74.74,0,0,0,1,.41l4.61-2.16A.73.73,0,0,0,195.77,42.64Zm176,35.51,9.17,5.45a.73.73,0,0,1,.23,1.06c-6.55,9.16-16.27,19.89-23.42,25.86a.72.72,0,0,1-1,0l-2.26-2.07a.71.71,0,0,1-.11-.94,171,171,0,0,0,16.32-29A.7.7,0,0,1,371.76,78.15Zm-54.36,32.1,8.79-5a.73.73,0,0,0,.27-1C320.94,95.7,312.59,85,305.37,78a.71.71,0,0,0-1,0l-2.49,2a.71.71,0,0,0-.18.92,280.77,280.77,0,0,1,14.64,29A.7.7,0,0,0,317.4,110.25ZM394,114.4h-46.6a.73.73,0,0,1-.73-.73V74.17a.73.73,0,0,1,.73-.73h40.84a.74.74,0,0,0,.73-.74V68.55a.74.74,0,0,0-.73-.74H347.41a.73.73,0,0,1-.73-.73V50.21a.73.73,0,0,1,.73-.73h21.7a.74.74,0,0,0,.73-.74V44.59a.74.74,0,0,0-.73-.74H313.68a.74.74,0,0,0-.74.74v4.15a.74.74,0,0,0,.74.74H335a.73.73,0,0,1,.73.73V67.08a.73.73,0,0,1-.73.73H294.13a.74.74,0,0,0-.73.74V72.7a.74.74,0,0,0,.73.74H335a.73.73,0,0,1,.73.73v39.5a.73.73,0,0,1-.73.73H288.78a.74.74,0,0,0-.74.74v5.22a.73.73,0,0,0,.74.73H394a.73.73,0,0,0,.73-.73v-5.22A.74.74,0,0,0,394,114.4ZM281.72,58.87h0l-.13-.29ZM401.79,44.66c-16.29-5.14-38.74-15.19-55.93-34.25a.74.74,0,0,1-.08-.9l2.55-4A.73.73,0,0,0,348,4.44L337.11.31a.73.73,0,0,0-.9.35c-11.74,23.23-32.7,42-51.69,52.52l-.3.18q-1.75,1-3.48,1.83a.73.73,0,0,0-.29.91l1.14,2.49.13.29a.72.72,0,0,0,.91.36c.8-.33,1.59-.7,2.39-1.06l1.66-.74c21-9.42,41-24.2,55.39-42.81a.7.7,0,0,1,1.14,0c12.27,17.56,33.18,33.14,52.41,41.13a.74.74,0,0,0,.92-.32l5.64-9.76A.71.71,0,0,0,401.79,44.66ZM476.2,91.78H464.81a.73.73,0,0,0-.73.73v27.85a.73.73,0,0,1-.74.73h-7.1a.73.73,0,0,1-.73-.73V92.51a.73.73,0,0,0-.73-.73h-11a.74.74,0,0,1-.73-.74V86.89a.74.74,0,0,1,.73-.74H462a.74.74,0,0,0,.7-.47A137.57,137.57,0,0,0,469,64.22a.72.72,0,0,1,1-.52l6.78,2.63a.75.75,0,0,1,.4,1c-3,6.69-5.72,12.32-9.54,17.67a.72.72,0,0,0,.58,1.15h8a.74.74,0,0,1,.73.74V91A.74.74,0,0,1,476.2,91.78Zm5.62-68.41a.73.73,0,0,1,.73.73V45.4a.73.73,0,0,1-.73.73h-43a.73.73,0,0,1-.73-.73V24.1a.73.73,0,0,1,.73-.73ZM474,29.59a.73.73,0,0,0-.73-.73H447.41a.74.74,0,0,0-.74.73V39.91a.74.74,0,0,0,.74.73h25.84a.73.73,0,0,0,.73-.73ZM495,14.2V10.05a.74.74,0,0,0-.73-.74H426.52a.74.74,0,0,0-.73.74V14.2a.74.74,0,0,0,.73.74h67.75A.74.74,0,0,0,495,14.2Zm-35.67,67A79.42,79.42,0,0,0,450.51,67c-.63-.8-1.27-1.56-1.91-2.31-.18-.21-.39-.51-.6-.6a.79.79,0,0,0-.73.12l-2.07,1.33a.82.82,0,0,0-.45.63.76.76,0,0,0,.05.33l.09.2c.58,1.18,1.14,2.35,1.71,3.6,2,4.4,3.76,8.83,5.69,14.28a.74.74,0,0,0,1,.43L459,82.2A.76.76,0,0,0,459.33,81.19Zm87,40.14a.73.73,0,0,1-.5.92l-8.15,2.37a.71.71,0,0,1-.91-.55c-.75-3.92-1.79-8-2.85-12.16a.73.73,0,0,0-1-.48,190,190,0,0,1-36.57,12.86.75.75,0,0,1-.88-.49l-3-8.8a.74.74,0,0,1,.63-1c6.52-.64,12.6-1.63,18.43-2.74a.74.74,0,0,0,.6-.72V81.4a.73.73,0,0,0-.74-.73h-7.5a.73.73,0,0,0-.73.73v9a.74.74,0,0,1-.74.74h-7.1a.74.74,0,0,1-.73-.74V28.92a.73.73,0,0,1,.73-.73H511.4a.74.74,0,0,0,.74-.73V2.55a.73.73,0,0,1,.73-.73h8.31a.73.73,0,0,1,.73.73V27.46a.73.73,0,0,0,.73.73h16.21a.73.73,0,0,1,.73.73V86.09a.73.73,0,0,1-.73.73h-7.24a.73.73,0,0,1-.73-.73V81.4a.73.73,0,0,0-.73-.73h-7.51a.73.73,0,0,0-.73.73V108a.75.75,0,0,0,.91.72c3-.7,6-1.49,8.83-2.28a.75.75,0,0,0,.52-.91c-1.07-4-2.33-8-3.51-11.55l-.11-.32a.74.74,0,0,1,.39-1l0,0,2.64-1.28a.73.73,0,0,1,.5,0,.69.69,0,0,1,.43.3c.67,1,1.37,2.23,2.08,3.49A160.66,160.66,0,0,1,546.32,121.33ZM512.81,34.54a.74.74,0,0,0-.74-.73H503.9a.73.73,0,0,0-.73.73V74.31a.73.73,0,0,0,.73.73h8.17a.73.73,0,0,0,.74-.73Zm9.3,40.5h8a.73.73,0,0,0,.73-.73V34.54a.73.73,0,0,0-.73-.73h-8a.73.73,0,0,0-.73.73V74.31A.72.72,0,0,0,522.11,75ZM489.05,54.7H431.21a.72.72,0,0,0-.73.73v69.75a.73.73,0,0,0,.73.74H439a.74.74,0,0,0,.73-.74V61.05a.74.74,0,0,1,.74-.73H480a.73.73,0,0,1,.73.73v52.82c0,4.37-1.49,5.52-8.47,4.93-1-.09-2.24-.22-3.56-.38l-.42-.06a.74.74,0,0,0-.81.61l-.52,2.61,0,.08a.74.74,0,0,0,.06.53.76.76,0,0,0,.38.35l.2.08q1.74.72,3.51,1.29c9.39,3,18.75,2.32,18.75-7V55.43A.73.73,0,0,0,489.05,54.7Zm126.81,54.82V49.81a.74.74,0,0,0-.73-.74H591.67a.72.72,0,0,1-.7-.92,136.58,136.58,0,0,0,5.29-28.39.72.72,0,0,1,.72-.67h22a.74.74,0,0,0,.73-.74V13.93a.73.73,0,0,0-.73-.73H571.75a.73.73,0,0,0-.74.73v4.42a.74.74,0,0,0,.74.74h14a.74.74,0,0,1,.74.79c-1.56,24-7.83,45.49-16,58.83-.68,1.11-1.36,2.19-2.07,3.18a.8.8,0,0,0-.1.5.76.76,0,0,0,.25.45l0,.06,2.09,1.82a.72.72,0,0,0,1,0c.92-1,1.83-2.1,2.74-3.26.06-.07.11-.12.16-.19a80.91,80.91,0,0,0,5.9-8.68.73.73,0,0,1,1.37.36v41.65a.73.73,0,0,0,.73.73h7.91a.73.73,0,0,0,.73-.73V102.15a.73.73,0,0,1,.73-.73h13.8a.73.73,0,0,1,.73.73v7.37a.73.73,0,0,0,.73.73h7.91A.73.73,0,0,0,615.86,109.52Zm-9.37-14.19a.73.73,0,0,1-.73.73H592a.73.73,0,0,1-.73-.73V55a.74.74,0,0,1,.73-.74h13.8a.74.74,0,0,1,.73.74Zm80.8-36.08H673.35a.74.74,0,0,1-.73-.74V15.4a.73.73,0,0,1,.73-.73h10a.73.73,0,0,0,.73-.74v-4a.73.73,0,0,0-.73-.73H623.82a.73.73,0,0,0-.73.73v4a.74.74,0,0,0,.73.74h8a.73.73,0,0,1,.74.73V58.51a.74.74,0,0,1-.74.74H619.41a.74.74,0,0,0-.74.73v4.16a.74.74,0,0,0,.74.73h12.3a.75.75,0,0,1,.73.77c-.68,26.66-5.17,41-19.73,54-1,.86-2,1.73-3.07,2.58l-.14.15a.77.77,0,0,0,0,1l1.67,2.38a.76.76,0,0,0,1,.2h0c.77-.46,1.48-.92,2.22-1.38,19.62-12.26,26.94-25.76,27.92-59a.74.74,0,0,1,.72-.72h18.78a.73.73,0,0,1,.73.73v58.78a.73.73,0,0,0,.73.73h8.58a.73.73,0,0,0,.73-.73V65.6a.73.73,0,0,1,.73-.73h13.94a.73.73,0,0,0,.73-.73V60A.73.73,0,0,0,687.29,59.25Zm-24.71-.74a.74.74,0,0,1-.73.74H643.23a.74.74,0,0,1-.73-.74V15.4a.73.73,0,0,1,.73-.73h18.62a.73.73,0,0,1,.73.73Zm94.74,19.88H720a.73.73,0,0,0-.73.73v43a.74.74,0,0,0,.73.74h7.77a.74.74,0,0,0,.74-.74v-8.57a.73.73,0,0,1,.73-.73h28.12a.74.74,0,0,0,.73-.74V79.12A.73.73,0,0,0,757.32,78.39Zm-8.24,28.18a.73.73,0,0,1-.73.74H729.2a.74.74,0,0,1-.73-.74V84.75a.74.74,0,0,1,.73-.74h19.15a.73.73,0,0,1,.73.74Zm15.4-76V26.38a.73.73,0,0,0-.73-.73H741.53a1.35,1.35,0,0,1-.35,0,.3.3,0,0,1-.09-.43L747,20.89a.72.72,0,0,0,.12-1A118.68,118.68,0,0,0,728.31,2.18a.72.72,0,0,0-1,.1l-2.08,2.18a.71.71,0,0,0-.08.91,210.44,210.44,0,0,1,11.94,19.2.73.73,0,0,1-.66,1.08H713.81a.73.73,0,0,0-.74.73v4.16a.74.74,0,0,0,.74.73h49.94A.73.73,0,0,0,764.48,30.54ZM719.56,42.38a.73.73,0,0,0-.73.73v4a.73.73,0,0,0,.73.73h38.7a.73.73,0,0,0,.73-.73v-4a.73.73,0,0,0-.73-.73Zm38.83,23.29a.72.72,0,0,0,.73-.73v-4a.73.73,0,0,0-.73-.74H719.56a.74.74,0,0,0-.73.74v4a.73.73,0,0,0,.73.73Zm44.05-57h-8a.73.73,0,0,0-.74.73V113.67a.74.74,0,0,0,.74.73h8a.73.73,0,0,0,.73-.73V9.38A.73.73,0,0,0,802.44,8.65Zm23.82-6.83h-8.57a.72.72,0,0,0-.73.73V124.78a.72.72,0,0,0,.73.73h8.57a.73.73,0,0,0,.74-.73V2.55A.73.73,0,0,0,826.26,1.82ZM779,2.22H770.7A.73.73,0,0,0,770,3V53.36c0,31.7-2.2,55.77-12.69,69.3l-.09.1a.74.74,0,0,0,0,1h0l2.33,2a.74.74,0,0,0,1,0c1-1,1.93-2,2.83-3,12.69-14.7,16.35-36.18,16.35-69.32V3A.73.73,0,0,0,779,2.22Zm178.63,41.1a.73.73,0,0,1,.74.73v4.16a.74.74,0,0,1-.74.73H912.52a.73.73,0,0,1-.73-.73V44.05a.73.73,0,0,1,.73-.73Zm-26.1-22.87a.74.74,0,0,1-.59,1.18H898.6a.73.73,0,0,0-.73.73V44.73a.73.73,0,0,0,.73.73h8a.73.73,0,0,0,.73-.73V28a.73.73,0,0,1,.73-.73h53.42a.74.74,0,0,1,.74.73V44.86a.73.73,0,0,0,.73.73h8a.73.73,0,0,0,.73-.73V22.36a.73.73,0,0,0-.73-.73H937.15c-.2,0-.35-.13-.17-.31l4.42-4.64a.74.74,0,0,0,0-1C934.37,9,927.05,3.39,921,.09a.73.73,0,0,0-.91.18l-2,2.4a.71.71,0,0,0,0,.94C922.5,8.55,927,14.27,931.54,20.45ZM883.67,46.68a.7.7,0,0,1-.08-.88C888.27,39,893.7,27.74,899.5,12.11a.76.76,0,0,0-.38-.94l-9-4.12-.08,0a.57.57,0,0,0-.52.1l-.07,0-2.13,1.7a.7.7,0,0,1-.46.16H872.8a.68.68,0,0,1-.2,0L864,6.63a.73.73,0,0,0-.93.7V124.78a.73.73,0,0,0,.73.73H872a.73.73,0,0,0,.73-.73V15a.73.73,0,0,1,.73-.73h13.41a.73.73,0,0,1,.74.83,151.33,151.33,0,0,1-8.32,31.49.69.69,0,0,0,.08.65c6.71,9.6,11.3,21.87,11.3,30.21.13,10.57-2.41,12-13.44,9.57l-.14,0a.73.73,0,0,0-.92.42l-.88,3a.77.77,0,0,0,.3.83c.71.49,1.41.91,2.11,1.33,12.76,7.59,23,3.3,22.47-13C899.88,68.77,892.85,56.52,883.67,46.68Zm90.1,48.17c-.25-1.23-.52-2.49-.81-3.82a.74.74,0,0,0-.72-.59h-3a.72.72,0,0,0-.67.79v-.09c.13,20.07-.09,21.91-9.24,21.91-9.37,0-10.31-.26-10.44-6.55V71.36a.73.73,0,0,1,.73-.73h20.76a.73.73,0,0,0,.73-.74V65.74a.73.73,0,0,0-.73-.74H902.21a.74.74,0,0,0-.73.74v4.15a.74.74,0,0,0,.73.74h15.65a.75.75,0,0,1,.74.77c-.55,22.7-8.31,39.81-30.21,50.82l-.29.14a.74.74,0,0,0-.39,1l1.31,2.79a.75.75,0,0,0,.92.39c1.34-.46,2.61-1,3.87-1.47,23.12-9.34,33.65-27.38,34.82-53.7a.72.72,0,0,1,.72-.7h8.88a.73.73,0,0,1,.73.73v37.15c0,13.52,4.42,13.92,20.09,13.92C976.22,122.43,978,115.72,973.77,94.85Z"/></svg>